<svg width="64" height="64" viewBox="0 0 64 64" fill="none" xmlns="http://www.w3.org/2000/svg">
<mask id="mask0_850_14620" style="mask-type:alpha" maskUnits="userSpaceOnUse" x="0" y="0" width="64" height="64">
<rect width="64" height="64" fill="#D9D9D9"/>
</mask>
<g mask="url(#mask0_850_14620)">
<path d="M28.2154 43.3436L46.1436 25.4154L43.3334 22.6052L28.2154 37.7232L20.6154 30.1232L17.8052 32.9334L28.2154 43.3436ZM32.0045 57.3333C28.5007 57.3333 25.2072 56.6684 22.1242 55.3386C19.0411 54.0088 16.3593 52.2042 14.0787 49.9246C11.7981 47.645 9.99264 44.9644 8.66228 41.8827C7.33193 38.801 6.66675 35.5083 6.66675 32.0045C6.66675 28.5007 7.33164 25.2072 8.66142 22.1242C9.99119 19.0411 11.7959 16.3593 14.0754 14.0788C16.355 11.7981 19.0357 9.99264 22.1173 8.66228C25.199 7.33193 28.4917 6.66675 31.9956 6.66675C35.4994 6.66675 38.7928 7.33164 41.8758 8.66142C44.9589 9.9912 47.6407 11.7959 49.9213 14.0754C52.2019 16.355 54.0074 19.0357 55.3378 22.1174C56.6681 25.199 57.3333 28.4917 57.3333 31.9956C57.3333 35.4994 56.6684 38.7928 55.3386 41.8758C54.0088 44.9589 52.2042 47.6407 49.9246 49.9213C47.645 52.2019 44.9644 54.0074 41.8827 55.3378C38.801 56.6681 35.5083 57.3333 32.0045 57.3333Z" fill="#F4F4F5"/>
</g>
</svg>
