<svg width="64" height="64" viewBox="0 0 64 64" fill="none" xmlns="http://www.w3.org/2000/svg">
<mask id="mask0_850_14572" style="mask-type:alpha" maskUnits="userSpaceOnUse" x="0" y="0" width="64" height="64">
<rect width="64" height="64" fill="#D9D9D9"/>
</mask>
<g mask="url(#mask0_850_14572)">
<path d="M16.8205 51.9997C15.4735 51.9997 14.3333 51.5331 13.4 50.5997C12.4667 49.6664 12 48.5262 12 47.1792V39.9998H15.9999V47.1792C15.9999 47.3844 16.0854 47.5724 16.2563 47.7434C16.4273 47.9143 16.6154 47.9998 16.8205 47.9998H47.1793C47.3845 47.9998 47.5726 47.9143 47.7435 47.7434C47.9145 47.5724 47.9999 47.3844 47.9999 47.1792V39.9998H51.9999V47.1792C51.9999 48.5262 51.5332 49.6664 50.5999 50.5997C49.6665 51.5331 48.5264 51.9997 47.1793 51.9997H16.8205ZM31.9999 41.6407L20.6155 30.2563L23.4257 27.3641L30 33.9384V11.5383H33.9999V33.9384L40.5742 27.3641L43.3844 30.2563L31.9999 41.6407Z" fill="#F4F4F5"/>
</g>
</svg>
