<svg width="64" height="65" viewBox="0 0 64 65" fill="none" xmlns="http://www.w3.org/2000/svg">
<mask id="mask0_730_19329" style="mask-type:alpha" maskUnits="userSpaceOnUse" x="0" y="0" width="64" height="65">
<rect y="0.5" width="64" height="64" fill="#D9D9D9"/>
</mask>
<g mask="url(#mask0_730_19329)">
<path d="M16.8205 57.8332C15.4949 57.8332 14.3601 57.3612 13.4161 56.4172C12.472 55.4732 12 54.3383 12 53.0127V27.9872C12 26.6616 12.472 25.5268 13.4161 24.5828C14.3601 23.6387 15.4949 23.1667 16.8205 23.1667H20V17.8334C20 14.5035 21.1675 11.6711 23.5025 9.33603C25.8376 7.00101 28.6701 5.8335 31.9999 5.8335C35.3298 5.8335 38.1623 7.00101 40.4973 9.33603C42.8324 11.6711 43.9999 14.5035 43.9999 17.8334V23.1667H47.1793C48.505 23.1667 49.6398 23.6387 50.5838 24.5828C51.5278 25.5268 51.9999 26.6616 51.9999 27.9872V53.0127C51.9999 54.3383 51.5278 55.4732 50.5838 56.4172C49.6398 57.3612 48.505 57.8332 47.1793 57.8332H16.8205ZM31.9999 45.1666C33.2957 45.1666 34.3974 44.7127 35.305 43.805C36.2127 42.8974 36.6665 41.7957 36.6665 40.5C36.6665 39.2042 36.2127 38.1025 35.305 37.1949C34.3974 36.2872 33.2957 35.8334 31.9999 35.8334C30.7042 35.8334 29.6025 36.2872 28.6949 37.1949C27.7872 38.1025 27.3333 39.2042 27.3333 40.5C27.3333 41.7957 27.7872 42.8974 28.6949 43.805C29.6025 44.7127 30.7042 45.1666 31.9999 45.1666ZM23.9999 23.1667H39.9999V17.8334C39.9999 15.6111 39.2222 13.7223 37.6666 12.1667C36.111 10.6111 34.2222 9.83336 31.9999 9.83336C29.7777 9.83336 27.8888 10.6111 26.3333 12.1667C24.7777 13.7223 23.9999 15.6111 23.9999 17.8334V23.1667Z" fill="#E9E9EB"/>
</g>
</svg>
