<svg width="64" height="64" viewBox="0 0 64 64" fill="none" xmlns="http://www.w3.org/2000/svg">
<mask id="mask0_583_15111" style="mask-type:alpha" maskUnits="userSpaceOnUse" x="0" y="0" width="64" height="64">
<rect width="64" height="64" fill="#D9D9D9"/>
</mask>
<g mask="url(#mask0_583_15111)">
<path d="M16.8 22.6668H40V17.3335C40 15.1113 39.2222 13.2224 37.6667 11.6668C36.1111 10.1113 34.2222 9.3335 32 9.3335C29.7778 9.3335 27.8889 10.1113 26.3333 11.6668C24.7778 13.2224 24 15.1113 24 17.3335H20C20 14.0002 21.1662 11.1664 23.4987 8.83216C25.8329 6.49972 28.6667 5.3335 32 5.3335C35.3333 5.3335 38.1671 6.49972 40.5013 8.83216C42.8338 11.1664 44 14.0002 44 17.3335V22.6668H47.2C48.5333 22.6668 49.6667 23.1335 50.6 24.0668C51.5333 25.0002 52 26.1335 52 27.4668V52.5335C52 53.8668 51.5333 55.0002 50.6 55.9335C49.6667 56.8668 48.5333 57.3335 47.2 57.3335H16.8C15.4667 57.3335 14.3333 56.8668 13.4 55.9335C12.4667 55.0002 12 53.8668 12 52.5335V27.4668C12 26.1335 12.4667 25.0002 13.4 24.0668C14.3333 23.1335 15.4667 22.6668 16.8 22.6668ZM32 44.6668C33.2889 44.6668 34.3893 44.2117 35.3013 43.3015C36.2116 42.3895 36.6667 41.2891 36.6667 40.0002C36.6667 38.7113 36.2116 37.6108 35.3013 36.6988C34.3893 35.7886 33.2889 35.3335 32 35.3335C30.7111 35.3335 29.6107 35.7886 28.6987 36.6988C27.7884 37.6108 27.3333 38.7113 27.3333 40.0002C27.3333 41.2891 27.7884 42.3895 28.6987 43.3015C29.6107 44.2117 30.7111 44.6668 32 44.6668Z" fill="#F4F4F5"/>
</g>
</svg>
