<svg width="64" height="64" viewBox="0 0 64 64" fill="none" xmlns="http://www.w3.org/2000/svg">
<mask id="mask0_583_15126" style="mask-type:alpha" maskUnits="userSpaceOnUse" x="0" y="0" width="64" height="64">
<rect width="64" height="64" fill="#D9D9D9"/>
</mask>
<g mask="url(#mask0_583_15126)">
<path d="M16.8205 57.3332C15.4949 57.3332 14.3601 56.8612 13.4161 55.9172C12.472 54.9732 12 53.8383 12 52.5127V27.4872C12 26.1616 12.472 25.0268 13.4161 24.0828C14.3601 23.1387 15.4949 22.6667 16.8205 22.6667H20V17.3334C20 14.0035 21.1675 11.1711 23.5025 8.83603C25.8376 6.50101 28.6701 5.3335 31.9999 5.3335C35.3298 5.3335 38.1623 6.50101 40.4973 8.83603C42.8324 11.1711 43.9999 14.0035 43.9999 17.3334V22.6667H47.1793C48.505 22.6667 49.6398 23.1387 50.5838 24.0828C51.5278 25.0268 51.9999 26.1616 51.9999 27.4872V52.5127C51.9999 53.8383 51.5278 54.9732 50.5838 55.9172C49.6398 56.8612 48.505 57.3332 47.1793 57.3332H16.8205ZM31.9999 44.6666C33.2957 44.6666 34.3974 44.2127 35.305 43.305C36.2127 42.3974 36.6665 41.2957 36.6665 40C36.6665 38.7042 36.2127 37.6025 35.305 36.6949C34.3974 35.7872 33.2957 35.3334 31.9999 35.3334C30.7042 35.3334 29.6025 35.7872 28.6949 36.6949C27.7872 37.6025 27.3333 38.7042 27.3333 40C27.3333 41.2957 27.7872 42.3974 28.6949 43.305C29.6025 44.2127 30.7042 44.6666 31.9999 44.6666ZM23.9999 22.6667H39.9999V17.3334C39.9999 15.1111 39.2222 13.2223 37.6666 11.6667C36.111 10.1111 34.2222 9.33336 31.9999 9.33336C29.7777 9.33336 27.8888 10.1111 26.3333 11.6667C24.7777 13.2223 23.9999 15.1111 23.9999 17.3334V22.6667Z" fill="#E9E9EB"/>
</g>
</svg>
