<svg width="110" height="110" viewBox="0 0 110 110" fill="none" xmlns="http://www.w3.org/2000/svg">
<g filter="url(#filter0_bd_730_20402)">
<rect x="15" y="11" width="80" height="80" rx="8" fill="#FF512F" shapeRendering="crispEdges"/>
<mask id="mask0_730_20402" style="mask-type:alpha" maskUnits="userSpaceOnUse" x="31" y="27" width="48" height="48">
<rect x="31" y="27" width="48" height="48" fill="#D9D9D9"/>
</mask>
<g mask="url(#mask0_730_20402)">
<path d="M43 71C41.9 71 40.9583 70.6083 40.175 69.825C39.3917 69.0417 39 68.1 39 67V47C39 45.9 39.3917 44.9583 40.175 44.175C40.9583 43.3917 41.9 43 43 43H45V39C45 36.2333 45.975 33.875 47.925 31.925C49.875 29.975 52.2333 29 55 29C57.7667 29 60.125 29.975 62.075 31.925C64.025 33.875 65 36.2333 65 39V43H67C68.1 43 69.0417 43.3917 69.825 44.175C70.6083 44.9583 71 45.9 71 47V67C71 68.1 70.6083 69.0417 69.825 69.825C69.0417 70.6083 68.1 71 67 71H43ZM55 61C56.1 61 57.0417 60.6083 57.825 59.825C58.6083 59.0417 59 58.1 59 57C59 55.9 58.6083 54.9583 57.825 54.175C57.0417 53.3917 56.1 53 55 53C53.9 53 52.9583 53.3917 52.175 54.175C51.3917 54.9583 51 55.9 51 57C51 58.1 51.3917 59.0417 52.175 59.825C52.9583 60.6083 53.9 61 55 61ZM49 43H61V39C61 37.3333 60.4167 35.9167 59.25 34.75C58.0833 33.5833 56.6667 33 55 33C53.3333 33 51.9167 33.5833 50.75 34.75C49.5833 35.9167 49 37.3333 49 39V43Z" fill="#F9F9FA"/>
</g>
</g>
<defs>
<filter id="filter0_bd_730_20402" x="-35" y="-39" width="180" height="180" filterUnits="userSpaceOnUse" colorInterpolationFilters="sRGB">
<feFlood floodOpacity="0" result="BackgroundImageFix"/>
<feGaussianBlur in="BackgroundImageFix" stdDeviation="25"/>
<feComposite in2="SourceAlpha" operator="in" result="effect1_backgroundBlur_730_20402"/>
<feColorMatrix in="SourceAlpha" type="matrix" values="0 0 0 0 0 0 0 0 0 0 0 0 0 0 0 0 0 0 127 0" result="hardAlpha"/>
<feOffset dy="4"/>
<feGaussianBlur stdDeviation="7.5"/>
<feComposite in2="hardAlpha" operator="out"/>
<feColorMatrix type="matrix" values="0 0 0 0 0 0 0 0 0 0 0 0 0 0 0 0 0 0 0.1 0"/>
<feBlend mode="normal" in2="effect1_backgroundBlur_730_20402" result="effect2_dropShadow_730_20402"/>
<feBlend mode="normal" in="SourceGraphic" in2="effect2_dropShadow_730_20402" result="shape"/>
</filter>
</defs>
</svg>
